<svg xmlns="http://www.w3.org/2000/svg" viewBox="0 0 615.35 189.42"><defs><style>.cls-1{fill:#272a59;}</style></defs><title>clean logo</title><g id="Layer_2" data-name="Layer 2"><g id="Layer_1-2" data-name="Layer 1"><g id="logo-2"><path id="Path_15" data-name="Path 15" class="cls-1" d="M193.48,189.16,192.84,0,96.75,45,0,0V189.42l120.3-.16V130.12a24.4,24.4,0,0,1,48.79,0v59.07Z"/><path id="Path_16" data-name="Path 16" class="cls-1" d="M202.55,0V189.16H313.66V0Zm73.18,58.94a20.84,20.84,0,1,1,20.92-20.83,20.83,20.83,0,0,1-20.92,20.83Z"/></g><g id="Mask_Group_1" data-name="Mask Group 1"><g id="Indoor"><path id="Path_3" data-name="Path 3" class="cls-1" d="M359.79,85.15a.36.36,0,0,1-.41-.31.2.2,0,0,1,0-.11l.08-57.08a.29.29,0,0,1,.25-.33h9.42a.3.3,0,0,1,.34.25v.08l.08,57.08q0,.42-.33.42Z"/><path id="Path_4" data-name="Path 4" class="cls-1" d="M377.64,85.15c-.45,0-.67-.19-.67-.58L376.89,28a.59.59,0,0,1,.5-.67h7.67l14.1,32.74L398.74,28c0-.44.25-.67.75-.67h8.26c.33,0,.5.23.5.67l.08,56.67c0,.33-.14.49-.42.49h-7.34L386.15,54.57l.58,29.91q0,.66-.75.66Z"/><path id="Path_5" data-name="Path 5" class="cls-1" d="M416,85.14a.36.36,0,0,1-.42-.31v-.1l.16-57.09a.3.3,0,0,1,.26-.33h.08l15.59-.08a15.51,15.51,0,0,1,8.38,2.16,16.94,16.94,0,0,1,6.05,6,16.05,16.05,0,0,1,2.24,8.35V67.61A16.9,16.9,0,0,1,446,76.38a17.5,17.5,0,0,1-15.1,8.68Zm9.76-10.22h5.17a7.32,7.32,0,0,0,7.34-7.3h0V43.68a6.32,6.32,0,0,0-2-4.61,6.06,6.06,0,0,0-4.63-1.87l-5.84.08Z"/><path id="Path_6" data-name="Path 6" class="cls-1" d="M468.37,86a15.35,15.35,0,0,1-8.21-2.28,17.58,17.58,0,0,1-6-6.06A16.06,16.06,0,0,1,452,69.27L452,42.93a16,16,0,0,1,2.21-8.3,16.88,16.88,0,0,1,6-6,15.65,15.65,0,0,1,8.17-2.24,15.38,15.38,0,0,1,8.17,2.24,17,17,0,0,1,5.88,6,15.92,15.92,0,0,1,2.21,8.3l.09,26.34a16.35,16.35,0,0,1-2.21,8.36,17.35,17.35,0,0,1-5.92,6.06A15.41,15.41,0,0,1,468.37,86Zm0-10a5.77,5.77,0,0,0,4.38-2,6.6,6.6,0,0,0,1.88-4.61l-.09-26.34a6.64,6.64,0,0,0-1.75-4.64,5.69,5.69,0,0,0-4.42-1.91A5.93,5.93,0,0,0,464,38.25a6.41,6.41,0,0,0-1.83,4.69V69.28A6.54,6.54,0,0,0,464,74a5.85,5.85,0,0,0,4.42,2Z"/><path id="Path_7" data-name="Path 7" class="cls-1" d="M506.48,86a15.35,15.35,0,0,1-8.21-2.28,17.55,17.55,0,0,1-6-6.06,16.07,16.07,0,0,1-2.25-8.36l.09-26.34a15.92,15.92,0,0,1,2.21-8.3,16.85,16.85,0,0,1,6-6,15.68,15.68,0,0,1,8.17-2.24,15.41,15.41,0,0,1,8.18,2.24,17.21,17.21,0,0,1,5.88,6,16.11,16.11,0,0,1,2.21,8.3l.08,26.34a16.25,16.25,0,0,1-2.21,8.36,17.26,17.26,0,0,1-5.92,6.06A15.3,15.3,0,0,1,506.48,86Zm0-10a5.77,5.77,0,0,0,4.38-2,6.6,6.6,0,0,0,1.88-4.61l-.09-26.34a6.59,6.59,0,0,0-1.75-4.64,5.68,5.68,0,0,0-4.42-1.91,5.93,5.93,0,0,0-4.42,1.87,6.45,6.45,0,0,0-1.83,4.69V69.28A6.63,6.63,0,0,0,502.06,74a5.85,5.85,0,0,0,4.42,2Z"/><path id="Path_8" data-name="Path 8" class="cls-1" d="M529.5,85.15c-.23,0-.34-.14-.34-.42l.17-57.08a.29.29,0,0,1,.25-.33H546.5a16.32,16.32,0,0,1,8.3,2.2,16.34,16.34,0,0,1,7.38,19.78A17.1,17.1,0,0,1,560,53.45,14.21,14.21,0,0,1,557.77,56a16.87,16.87,0,0,1,4.5,11.71l.09,17a.36.36,0,0,1-.32.41h-9.52c-.23,0-.34-.08-.34-.25V67.7a7.24,7.24,0,0,0-2.12-5.2,7,7,0,0,0-5.21-2.2h-5.51l-.08,24.43c0,.28-.11.41-.33.41Zm9.84-34.81h7.16a6.43,6.43,0,0,0,4.59-1.92,6.35,6.35,0,0,0,.28-9l-.24-.24a6.39,6.39,0,0,0-4.63-1.91h-7.17Z"/></g><g id="Indigo"><path id="Path_9" data-name="Path 9" class="cls-1" d="M359.84,160.38a.41.41,0,0,1-.46-.35.24.24,0,0,1,0-.12l.09-63.76a.33.33,0,0,1,.28-.37h10.53a.33.33,0,0,1,.37.28v.09l.09,63.76c0,.31-.12.47-.37.47Z"/><path id="Path_10" data-name="Path 10" class="cls-1" d="M379.78,160.38c-.5,0-.75-.22-.75-.65l-.09-63.2a.65.65,0,0,1,.55-.74.6.6,0,0,1,.19,0h8.38l15.75,36.56-.47-35.82q0-.75.84-.75h9.22c.37,0,.56.25.56.75l.09,63.3c0,.37-.15.56-.46.56h-8.2l-16.12-34.16.66,33.41q0,.75-.84.75Z"/><path id="Path_11" data-name="Path 11" class="cls-1" d="M422.63,160.38a.42.42,0,0,1-.47-.35.24.24,0,0,1,0-.12l.19-63.76a.32.32,0,0,1,.28-.37.14.14,0,0,1,.09,0l17.42-.09a17.39,17.39,0,0,1,9.36,2.41,18.93,18.93,0,0,1,6.75,6.73,17.91,17.91,0,0,1,2.52,9.33V140.8a18.93,18.93,0,0,1-2.61,9.79,19.55,19.55,0,0,1-16.86,9.7ZM433.52,149h5.77a8.17,8.17,0,0,0,8.2-8.15V114.06a7,7,0,0,0-2.19-5.15,6.77,6.77,0,0,0-5.17-2.08l-6.52.09Z"/><path id="Path_12" data-name="Path 12" class="cls-1" d="M466.59,160.38a.41.41,0,0,1-.46-.35.24.24,0,0,1,0-.12l.09-63.76a.32.32,0,0,1,.28-.37H477a.33.33,0,0,1,.38.28v.09l.09,63.76c0,.31-.13.47-.37.47Z"/><path id="Path_13" data-name="Path 13" class="cls-1" d="M502.73,161.3a17.18,17.18,0,0,1-9.13-2.5,19,19,0,0,1-6.57-6.73,18.33,18.33,0,0,1-2.47-9.42V113.23A18,18,0,0,1,487,104a18.94,18.94,0,0,1,6.61-6.73,17.21,17.21,0,0,1,9.08-2.5A17.77,17.77,0,0,1,512,97.22a18.24,18.24,0,0,1,9,16v4.27c0,.24-.15.37-.46.37H510.08a.32.32,0,0,1-.37-.26.2.2,0,0,1,0-.11V114a8.66,8.66,0,0,0-2-5.85,6.39,6.39,0,0,0-9.78-.09,7.38,7.38,0,0,0-2.1,5.2v29.42a7.34,7.34,0,0,0,2.05,5.24,6.42,6.42,0,0,0,4.84,2.19,6.58,6.58,0,0,0,5-2.14,7.49,7.49,0,0,0,2-5.29v-4.56h-6.52a.41.41,0,0,1-.47-.34V127.24a.42.42,0,0,1,.35-.47h17.54c.25,0,.37.16.37.47v15.4a18.31,18.31,0,0,1-2.47,9.42,18.91,18.91,0,0,1-6.57,6.73A17.26,17.26,0,0,1,502.73,161.3Z"/><path id="Path_14" data-name="Path 14" class="cls-1" d="M544.84,161.3a17.1,17.1,0,0,1-9.18-2.55A19.62,19.62,0,0,1,529,152a17.81,17.81,0,0,1-2.51-9.33l.09-29.42a17.9,17.9,0,0,1,2.47-9.28,18.89,18.89,0,0,1,6.66-6.69,17.5,17.5,0,0,1,9.13-2.5,17.21,17.21,0,0,1,9.14,2.5,19.13,19.13,0,0,1,6.57,6.69,17.9,17.9,0,0,1,2.47,9.28l.09,29.42a18.2,18.2,0,0,1-2.47,9.33,19.22,19.22,0,0,1-6.61,6.77A17.14,17.14,0,0,1,544.84,161.3Zm0-11.23a6.48,6.48,0,0,0,4.89-2.27,7.4,7.4,0,0,0,2.09-5.15l-.09-29.42a7.39,7.39,0,0,0-2-5.2,6.42,6.42,0,0,0-4.93-2.14A6.67,6.67,0,0,0,539.9,108a7.16,7.16,0,0,0-2,5.24v29.42a7.42,7.42,0,0,0,2,5.25,6.53,6.53,0,0,0,4.94,2.18Z"/></g><rect id="Rectangle_8" data-name="Rectangle 8" class="cls-1" x="313.66" width="301.69" height="15.1"/><rect id="Rectangle_9" data-name="Rectangle 9" class="cls-1" x="313.66" y="174.06" width="301.69" height="15.1"/><rect id="Rectangle_10" data-name="Rectangle 10" class="cls-1" x="600.19" width="15.16" height="189.16"/></g></g></g></svg>