<svg xmlns="http://www.w3.org/2000/svg" viewBox="0 0 120 120"><defs><style>.cls-1{fill:#272a59;}</style></defs><title>facebook</title><g id="Layer_2" data-name="Layer 2"><g id="Layer_1-2" data-name="Layer 1"><g id="_001-facebook" data-name=" 001-facebook"><path id="Path_22" data-name="Path 22" class="cls-1" d="M69.67,119.22c-.5.08-1,.16-1.5.22C68.68,119.38,69.17,119.3,69.67,119.22Z"/><path id="Path_23" data-name="Path 23" class="cls-1" d="M70.88,119l-.72.13Z"/><path id="Path_24" data-name="Path 24" class="cls-1" d="M66.83,119.61q-.89.11-1.77.18Q65.95,119.71,66.83,119.61Z"/><path id="Path_25" data-name="Path 25" class="cls-1" d="M68,119.47l-.84.1Z"/><path id="Path_26" data-name="Path 26" class="cls-1" d="M72.51,118.69l-.63.13Z"/><path id="Path_27" data-name="Path 27" class="cls-1" d="M76.56,117.68l-.5.15Z"/><path id="Path_28" data-name="Path 28" class="cls-1" d="M75.34,118l-.56.14Z"/><path id="Path_29" data-name="Path 29" class="cls-1" d="M73.72,118.42l-.59.13Z"/><path id="Path_30" data-name="Path 30" class="cls-1" d="M65.05,119.79l-1,.07Z"/><path id="Path_31" data-name="Path 31" class="cls-1" d="M120,60a60,60,0,1,0-60,60h1.06V73.28H48.17v-15H61.06v-11c0-12.82,7.82-19.8,19.26-19.8A106.29,106.29,0,0,1,91.88,28v13.4H84c-6.22,0-7.43,3-7.43,7.29v9.57H91.45l-2,15H76.56v44.4A60,60,0,0,0,120,60Z"/><path id="Path_32" data-name="Path 32" class="cls-1" d="M64,119.87c-.62,0-1.25.07-1.88.09C62.71,119.94,63.34,119.91,64,119.87Z"/><path id="Path_33" data-name="Path 33" class="cls-1" d="M62,120l-1,0Z"/></g></g></g></svg>