<svg xmlns="http://www.w3.org/2000/svg" xmlns:xlink="http://www.w3.org/1999/xlink" viewBox="0 0 615.35 189.42"><defs><style>.cls-1{fill:none;}.cls-2{fill:#272a59;}.cls-3{clip-path:url(#clip-path);}</style><clipPath id="clip-path" transform="translate(-1.06 -6.78)"><rect class="cls-1" width="617" height="203.53"/></clipPath></defs><title>logo with mask layer</title><g id="Layer_2" data-name="Layer 2"><g id="Layer_1-2" data-name="Layer 1"><g id="logo-2"><path id="Path_15" data-name="Path 15" class="cls-2" d="M194.54,195.94,193.9,6.79l-96.09,45L1.06,6.79V196.2l120.3-.16V136.91a24.4,24.4,0,0,1,48.79,0V196Z" transform="translate(-1.06 -6.78)"/><path id="Path_16" data-name="Path 16" class="cls-2" d="M203.61,6.79V195.94H314.72V6.79Zm73.18,58.93A20.83,20.83,0,1,1,297.7,44.89a20.83,20.83,0,0,1-20.91,20.83Z" transform="translate(-1.06 -6.78)"/></g><g class="cls-3"><g id="Mask_Group_1" data-name="Mask Group 1"><g id="Indoor"><path id="Path_3" data-name="Path 3" class="cls-2" d="M360.85,91.93a.35.35,0,0,1-.41-.3.2.2,0,0,1,0-.11l.08-57.08a.3.3,0,0,1,.25-.34h9.42a.31.31,0,0,1,.34.25v.09l.08,57.08c0,.28-.11.41-.33.41Z" transform="translate(-1.06 -6.78)"/><path id="Path_4" data-name="Path 4" class="cls-2" d="M378.7,91.93c-.45,0-.67-.19-.67-.58L378,34.76a.58.58,0,0,1,.5-.66h7.67l14.1,32.73-.42-32.07q0-.66.75-.66h8.25q.51,0,.51.66l.08,56.67c0,.33-.14.5-.42.5h-7.34L387.21,61.35l.58,29.91c0,.45-.25.67-.75.67Z" transform="translate(-1.06 -6.78)"/><path id="Path_5" data-name="Path 5" class="cls-2" d="M417.06,91.93a.37.37,0,0,1-.42-.31v-.11l.16-57.08a.29.29,0,0,1,.26-.33h.08L432.73,34a15.69,15.69,0,0,1,8.38,2.16,17.05,17.05,0,0,1,6.05,6,16,16,0,0,1,2.24,8.35V74.39a16.88,16.88,0,0,1-2.33,8.77A17.49,17.49,0,0,1,432,91.84Zm9.76-10.22H432a7.32,7.32,0,0,0,7.34-7.3V50.46a6.32,6.32,0,0,0-2-4.61A6.07,6.07,0,0,0,432.74,44l-5.84.09Z" transform="translate(-1.06 -6.78)"/><path id="Path_6" data-name="Path 6" class="cls-2" d="M469.43,92.76a15.24,15.24,0,0,1-8.21-2.29,17.49,17.49,0,0,1-6-6.06A16.05,16.05,0,0,1,453,76.06l.08-26.34a16.07,16.07,0,0,1,2.21-8.31,16.77,16.77,0,0,1,6-6,15.57,15.57,0,0,1,8.17-2.25,15.38,15.38,0,0,1,8.17,2.25,17,17,0,0,1,5.88,6,16,16,0,0,1,2.21,8.31l.09,26.34a16.31,16.31,0,0,1-2.21,8.35,17.27,17.27,0,0,1-5.92,6.06A15.36,15.36,0,0,1,469.43,92.76Zm0-10.05a5.8,5.8,0,0,0,4.38-2,6.68,6.68,0,0,0,1.88-4.61l-.09-26.34a6.64,6.64,0,0,0-1.75-4.65,5.76,5.76,0,0,0-4.42-1.91A6,6,0,0,0,465,45a6.41,6.41,0,0,0-1.83,4.69V76.06a6.57,6.57,0,0,0,1.83,4.7,5.87,5.87,0,0,0,4.42,1.94Z" transform="translate(-1.06 -6.78)"/><path id="Path_7" data-name="Path 7" class="cls-2" d="M507.54,92.76a15.27,15.27,0,0,1-8.21-2.29,17.46,17.46,0,0,1-6-6.06,16.06,16.06,0,0,1-2.25-8.35l.09-26.34a16,16,0,0,1,2.21-8.31,16.74,16.74,0,0,1,6-6,16,16,0,0,1,16.35,0,17.18,17.18,0,0,1,5.88,6,16.17,16.17,0,0,1,2.21,8.31l.08,26.34a16.21,16.21,0,0,1-2.21,8.35,17.18,17.18,0,0,1-5.92,6.06A15.31,15.31,0,0,1,507.54,92.76Zm0-10.05a5.8,5.8,0,0,0,4.38-2,6.64,6.64,0,0,0,1.88-4.61l-.09-26.34A6.6,6.6,0,0,0,512,45.07a5.74,5.74,0,0,0-4.42-1.91A6,6,0,0,0,503.12,45a6.45,6.45,0,0,0-1.83,4.69V76.06a6.65,6.65,0,0,0,1.83,4.7,5.87,5.87,0,0,0,4.42,1.94Z" transform="translate(-1.06 -6.78)"/><path id="Path_8" data-name="Path 8" class="cls-2" d="M530.56,91.93c-.23,0-.34-.13-.34-.41l.16-57.08a.31.31,0,0,1,.26-.34h16.92a16.23,16.23,0,0,1,8.3,2.21,16.32,16.32,0,0,1,7.38,19.77,17.17,17.17,0,0,1-2.17,4.16,14.2,14.2,0,0,1-2.24,2.53,16.89,16.89,0,0,1,4.5,11.72l.09,17a.37.37,0,0,1-.32.42h-9.52c-.23,0-.34-.09-.34-.25V74.48a7.2,7.2,0,0,0-2.12-5.19,7,7,0,0,0-5.21-2.21H540.4l-.08,24.43q0,.42-.33.42Zm9.84-34.81h7.16a6.46,6.46,0,0,0,4.59-1.91,6.36,6.36,0,0,0,.28-9l-.24-.24a6.47,6.47,0,0,0-4.63-1.91h-7.17Z" transform="translate(-1.06 -6.78)"/></g><g id="Indigo"><path id="Path_9" data-name="Path 9" class="cls-2" d="M360.9,167.16a.41.41,0,0,1-.46-.35.2.2,0,0,1,0-.11l.09-63.77a.33.33,0,0,1,.28-.37h10.52a.34.34,0,0,1,.38.28v.09l.09,63.77c0,.31-.13.46-.37.46Z" transform="translate(-1.06 -6.78)"/><path id="Path_10" data-name="Path 10" class="cls-2" d="M380.83,167.16c-.49,0-.74-.22-.74-.64L380,103.31a.65.65,0,0,1,.55-.74h8.57l15.75,36.57-.47-35.83c0-.49.28-.74.84-.74h9.22c.37,0,.56.25.56.74l.09,63.3c0,.37-.15.56-.46.56h-8.2L390.33,133l.66,33.41c0,.49-.28.74-.84.74Z" transform="translate(-1.06 -6.78)"/><path id="Path_11" data-name="Path 11" class="cls-2" d="M423.69,167.16a.41.41,0,0,1-.47-.35.2.2,0,0,1,0-.11l.18-63.77a.34.34,0,0,1,.29-.37h.09l17.42-.09a17.48,17.48,0,0,1,9.36,2.41,19.09,19.09,0,0,1,6.75,6.73,17.91,17.91,0,0,1,2.52,9.33v26.64a19,19,0,0,1-2.61,9.79,19.55,19.55,0,0,1-16.86,9.7Zm10.89-11.42h5.77a8.16,8.16,0,0,0,8.2-8.14V120.85a7,7,0,0,0-2.19-5.16,6.78,6.78,0,0,0-5.17-2.08l-6.52.09Z" transform="translate(-1.06 -6.78)"/><path id="Path_12" data-name="Path 12" class="cls-2" d="M467.65,167.16a.41.41,0,0,1-.46-.34.24.24,0,0,1,0-.12l.09-63.77a.33.33,0,0,1,.28-.37h10.52a.34.34,0,0,1,.38.29v.08l.09,63.77c0,.31-.13.46-.37.46Z" transform="translate(-1.06 -6.78)"/><path id="Path_13" data-name="Path 13" class="cls-2" d="M503.79,168.09a17.1,17.1,0,0,1-9.13-2.51,19,19,0,0,1-6.57-6.73,18.33,18.33,0,0,1-2.47-9.42V120a17.94,17.94,0,0,1,2.47-9.23,18.7,18.7,0,0,1,6.61-6.73,17.22,17.22,0,0,1,9.08-2.51,17.86,17.86,0,0,1,9.27,2.46,18.26,18.26,0,0,1,9,16v4.27c0,.25-.16.37-.47.37H511.14a.32.32,0,0,1-.37-.26.21.21,0,0,1,0-.11v-3.53a8.69,8.69,0,0,0-2-5.84,6.33,6.33,0,0,0-5-2.32,6.43,6.43,0,0,0-4.79,2.22,7.34,7.34,0,0,0-2.1,5.2v29.42a7.38,7.38,0,0,0,2.05,5.25,6.44,6.44,0,0,0,4.84,2.18,6.58,6.58,0,0,0,5-2.14,7.48,7.48,0,0,0,2-5.28v-4.56h-6.52a.42.42,0,0,1-.47-.35V134a.41.41,0,0,1,.35-.46h17.54c.24,0,.37.16.37.46v15.41a18.33,18.33,0,0,1-2.47,9.42,19,19,0,0,1-6.57,6.73A17.34,17.34,0,0,1,503.79,168.09Z" transform="translate(-1.06 -6.78)"/><path id="Path_14" data-name="Path 14" class="cls-2" d="M545.9,168.09a17.28,17.28,0,0,1-9.18-2.55,19.65,19.65,0,0,1-6.66-6.78,17.81,17.81,0,0,1-2.51-9.33l.09-29.42a17.9,17.9,0,0,1,2.47-9.28,18.78,18.78,0,0,1,6.66-6.68,17.51,17.51,0,0,1,9.13-2.51,17.13,17.13,0,0,1,9.14,2.51,19,19,0,0,1,6.57,6.68,18,18,0,0,1,2.47,9.28l.09,29.42a18.18,18.18,0,0,1-2.47,9.33,19.33,19.33,0,0,1-6.61,6.78A17.22,17.22,0,0,1,545.9,168.09Zm0-11.23a6.46,6.46,0,0,0,4.89-2.28,7.38,7.38,0,0,0,2.09-5.15L552.79,120a7.42,7.42,0,0,0-2-5.2,6.38,6.38,0,0,0-4.93-2.13,6.66,6.66,0,0,0-4.94,2.08,7.18,7.18,0,0,0-2.05,5.24v29.43a7.4,7.4,0,0,0,2.05,5.24,6.51,6.51,0,0,0,4.94,2.19Z" transform="translate(-1.06 -6.78)"/></g><rect id="Rectangle_8" data-name="Rectangle 8" class="cls-2" x="313.66" width="301.69" height="15.1"/><rect id="Rectangle_9" data-name="Rectangle 9" class="cls-2" x="313.66" y="174.06" width="301.69" height="15.1"/><rect id="Rectangle_10" data-name="Rectangle 10" class="cls-2" x="600.19" width="15.16" height="189.16"/></g></g></g></g></svg>