<svg xmlns="http://www.w3.org/2000/svg" viewBox="0 0 120 120"><defs><style>.cls-1{fill:#272a59;}</style></defs><title>twitter</title><g id="Layer_2" data-name="Layer 2"><g id="Layer_1-2" data-name="Layer 1"><path id="_003-twitter" data-name=" 003-twitter" class="cls-1" d="M60,0a60,60,0,1,0,60,60A60,60,0,0,0,60,0ZM87.4,46.78c0,.59,0,1.19,0,1.78A38.91,38.91,0,0,1,48.79,87.75h-.54a39,39,0,0,1-21.11-6.19,25.77,25.77,0,0,0,3.28.19,27.56,27.56,0,0,0,17.11-5.89,13.8,13.8,0,0,1-12.87-9.57,13.8,13.8,0,0,0,6.23-.23,13.77,13.77,0,0,1-11-13.5v-.17a13.76,13.76,0,0,0,6.23,1.72,13.79,13.79,0,0,1-4.26-18.39A39.12,39.12,0,0,0,60.2,50.1,13.78,13.78,0,0,1,83.67,37.54a27.86,27.86,0,0,0,8.75-3.34,13.81,13.81,0,0,1-6.06,7.62,27.82,27.82,0,0,0,7.91-2.17,28.05,28.05,0,0,1-6.87,7.13Z"/></g></g></svg>