<svg xmlns="http://www.w3.org/2000/svg" viewBox="0 0 120 120"><defs><style>.cls-1{fill:#272a59;}</style></defs><title>linkedin</title><g id="Layer_2" data-name="Layer 2"><g id="Layer_1-2" data-name="Layer 1"><path id="_004-linkedin" data-name=" 004-linkedin" class="cls-1" d="M60,0a60,60,0,1,0,60,60A60,60,0,0,0,60,0ZM42.56,90.7H28V46.75H42.56Zm-7.31-50h-.09a7.62,7.62,0,0,1-.9-15.21,7.93,7.93,0,0,1,1.09,0,7.62,7.62,0,0,1,1.13,15.2A8.42,8.42,0,0,1,35.25,40.74Zm60,50H80.64V67.19c0-5.91-2.11-9.95-7.4-9.95a8,8,0,0,0-7.5,5.35,10.22,10.22,0,0,0-.48,3.56V90.7H50.65s.19-39.83,0-44H65.26V53a14.49,14.49,0,0,1,13.17-7.25c9.62,0,16.83,6.28,16.83,19.78Z"/></g></g></svg>