<svg xmlns="http://www.w3.org/2000/svg" viewBox="0 0 120 120"><defs><style>.cls-1{fill:#272a59;}</style></defs><title>youtube</title><g id="Layer_2" data-name="Layer 2"><g id="Layer_1-2" data-name="Layer 1"><g id="_005-youtube" data-name=" 005-youtube"><path id="Path_37" data-name="Path 37" class="cls-1" d="M52.53,71.24,72.05,60,52.53,48.74Z"/><path id="Path_38" data-name="Path 38" class="cls-1" d="M60,0a60,60,0,1,0,60,60A60,60,0,0,0,60,0ZM97.5,60.06A99.14,99.14,0,0,1,96,78.1a9.39,9.39,0,0,1-6.61,6.6C83.47,86.25,60,86.25,60,86.25s-23.41,0-29.34-1.6A9.42,9.42,0,0,1,24.05,78,98.34,98.34,0,0,1,22.5,60a98.34,98.34,0,0,1,1.55-18,9.57,9.57,0,0,1,6.61-6.67C36.53,33.75,60,33.75,60,33.75s23.47,0,29.34,1.61A9.39,9.39,0,0,1,96,42,93.9,93.9,0,0,1,97.5,60.06Z"/></g></g></g></svg>